<mxfile host="65bd71144e">
    <diagram id="6R_V7RuQhtCo5uhJrcwc" name="Page-1">
        <mxGraphModel dx="506" dy="423" grid="1" gridSize="10" guides="1" tooltips="1" connect="1" arrows="1" fold="1" page="1" pageScale="1" pageWidth="850" pageHeight="1100" math="0" shadow="0">
            <root>
                <mxCell id="0"/>
                <mxCell id="1" parent="0"/>
                <mxCell id="49" style="edgeStyle=orthogonalEdgeStyle;html=1;" parent="1" source="4" target="9" edge="1">
                    <mxGeometry relative="1" as="geometry">
                        <mxPoint x="338" y="220" as="targetPoint"/>
                    </mxGeometry>
                </mxCell>
                <mxCell id="4" value="Mulai" style="strokeWidth=0.5;html=1;shape=mxgraph.flowchart.terminator;whiteSpace=wrap;" parent="1" vertex="1">
                    <mxGeometry x="298" y="140" width="80" height="40" as="geometry"/>
                </mxCell>
                <mxCell id="50" style="edgeStyle=orthogonalEdgeStyle;html=1;exitX=0.5;exitY=1;exitDx=0;exitDy=0;entryX=0.5;entryY=0;entryDx=0;entryDy=0;entryPerimeter=0;" parent="1" source="9" target="65" edge="1">
                    <mxGeometry relative="1" as="geometry">
                        <mxPoint x="428" y="260" as="sourcePoint"/>
                        <mxPoint x="478" y="300" as="targetPoint"/>
                    </mxGeometry>
                </mxCell>
                <mxCell id="44" style="edgeStyle=none;html=1;entryX=0.5;entryY=0;entryDx=0;entryDy=0;exitX=0.5;exitY=1;exitDx=0;exitDy=0;exitPerimeter=0;" parent="1" source="65" target="62" edge="1">
                    <mxGeometry relative="1" as="geometry">
                        <mxPoint x="338" y="560" as="targetPoint"/>
                        <mxPoint x="378" y="510" as="sourcePoint"/>
                    </mxGeometry>
                </mxCell>
                <mxCell id="9" value="Pengguna memindai QR code" style="rounded=1;whiteSpace=wrap;html=1;absoluteArcSize=1;arcSize=14;strokeWidth=0.5;" parent="1" vertex="1">
                    <mxGeometry x="278" y="220" width="120" height="40" as="geometry"/>
                </mxCell>
                <mxCell id="52" value="Berhenti" style="strokeWidth=0.5;html=1;shape=mxgraph.flowchart.terminator;whiteSpace=wrap;" vertex="1" parent="1">
                    <mxGeometry x="298" y="900" width="80" height="40" as="geometry"/>
                </mxCell>
                <mxCell id="53" style="edgeStyle=orthogonalEdgeStyle;html=1;entryX=0;entryY=0.5;entryDx=0;entryDy=0;" edge="1" parent="1" source="55" target="59">
                    <mxGeometry relative="1" as="geometry"/>
                </mxCell>
                <mxCell id="54" style="edgeStyle=orthogonalEdgeStyle;html=1;entryX=0.5;entryY=0;entryDx=0;entryDy=0;" edge="1" parent="1" source="55" target="61">
                    <mxGeometry relative="1" as="geometry"/>
                </mxCell>
                <mxCell id="55" value="Authorization&lt;br&gt;rule terpenuhi?" style="strokeWidth=0.5;html=1;shape=mxgraph.flowchart.decision;whiteSpace=wrap;" vertex="1" parent="1">
                    <mxGeometry x="278" y="660" width="120" height="120" as="geometry"/>
                </mxCell>
                <mxCell id="56" style="edgeStyle=none;html=1;entryX=0.5;entryY=0;entryDx=0;entryDy=0;entryPerimeter=0;" edge="1" parent="1" source="57" target="55">
                    <mxGeometry relative="1" as="geometry"/>
                </mxCell>
                <mxCell id="57" value="Evaluasi&lt;br&gt;authorization rule" style="rounded=1;whiteSpace=wrap;html=1;absoluteArcSize=1;arcSize=14;strokeWidth=0.5;" vertex="1" parent="1">
                    <mxGeometry x="278" y="580" width="120" height="39.34" as="geometry"/>
                </mxCell>
                <mxCell id="58" style="edgeStyle=orthogonalEdgeStyle;html=1;entryX=1;entryY=0.5;entryDx=0;entryDy=0;entryPerimeter=0;exitX=0.5;exitY=1;exitDx=0;exitDy=0;" edge="1" parent="1" source="59" target="52">
                    <mxGeometry relative="1" as="geometry">
                        <mxPoint x="488" y="750" as="sourcePoint"/>
                        <Array as="points">
                            <mxPoint x="505" y="920"/>
                        </Array>
                    </mxGeometry>
                </mxCell>
                <mxCell id="59" value="Tolak akses untuk&lt;br&gt;melakukan aksi" style="rounded=1;whiteSpace=wrap;html=1;absoluteArcSize=1;arcSize=14;strokeWidth=0.5;" vertex="1" parent="1">
                    <mxGeometry x="438" y="700" width="135" height="40" as="geometry"/>
                </mxCell>
                <mxCell id="60" style="edgeStyle=orthogonalEdgeStyle;html=1;entryX=0.5;entryY=0;entryDx=0;entryDy=0;entryPerimeter=0;" edge="1" parent="1" source="61" target="52">
                    <mxGeometry relative="1" as="geometry"/>
                </mxCell>
                <mxCell id="61" value="Lakukan aksi" style="rounded=1;whiteSpace=wrap;html=1;absoluteArcSize=1;arcSize=14;strokeWidth=0.5;" vertex="1" parent="1">
                    <mxGeometry x="278" y="820" width="120" height="40" as="geometry"/>
                </mxCell>
                <mxCell id="62" value="Pengguna memilih aksi" style="rounded=1;whiteSpace=wrap;html=1;absoluteArcSize=1;arcSize=14;strokeWidth=0.5;" vertex="1" parent="1">
                    <mxGeometry x="278" y="500" width="120" height="40" as="geometry"/>
                </mxCell>
                <mxCell id="63" style="edgeStyle=none;html=1;entryX=0.5;entryY=0;entryDx=0;entryDy=0;exitX=0.5;exitY=1;exitDx=0;exitDy=0;" edge="1" parent="1" source="62" target="57">
                    <mxGeometry relative="1" as="geometry">
                        <mxPoint x="348" y="510" as="targetPoint"/>
                        <mxPoint x="348" y="470" as="sourcePoint"/>
                    </mxGeometry>
                </mxCell>
                <mxCell id="64" value="Pengguna login ke akun" style="rounded=1;whiteSpace=wrap;html=1;absoluteArcSize=1;arcSize=14;strokeWidth=0.5;" vertex="1" parent="1">
                    <mxGeometry x="438" y="340" width="120" height="40" as="geometry"/>
                </mxCell>
                <mxCell id="65" value="Pengguna telah&lt;br&gt;terautentikasi?" style="strokeWidth=0.5;html=1;shape=mxgraph.flowchart.decision;whiteSpace=wrap;" vertex="1" parent="1">
                    <mxGeometry x="278" y="300" width="120" height="120" as="geometry"/>
                </mxCell>
                <mxCell id="66" style="edgeStyle=orthogonalEdgeStyle;html=1;exitX=1;exitY=0.5;exitDx=0;exitDy=0;entryX=0;entryY=0.5;entryDx=0;entryDy=0;exitPerimeter=0;" edge="1" parent="1" source="65" target="64">
                    <mxGeometry relative="1" as="geometry">
                        <mxPoint x="348.0000000000001" y="270" as="sourcePoint"/>
                        <mxPoint x="348.0000000000001" y="310" as="targetPoint"/>
                    </mxGeometry>
                </mxCell>
                <mxCell id="67" style="edgeStyle=orthogonalEdgeStyle;html=1;exitX=0.5;exitY=1;exitDx=0;exitDy=0;endArrow=none;endFill=0;" edge="1" parent="1" source="64">
                    <mxGeometry relative="1" as="geometry">
                        <mxPoint x="408" y="370" as="sourcePoint"/>
                        <mxPoint x="338" y="460" as="targetPoint"/>
                        <Array as="points">
                            <mxPoint x="498" y="460"/>
                        </Array>
                    </mxGeometry>
                </mxCell>
                <mxCell id="68" value="No" style="text;html=1;strokeColor=none;fillColor=none;align=center;verticalAlign=middle;whiteSpace=wrap;rounded=0;" vertex="1" parent="1">
                    <mxGeometry x="398" y="330" width="30" height="30" as="geometry"/>
                </mxCell>
                <mxCell id="69" value="Yes" style="text;html=1;strokeColor=none;fillColor=none;align=center;verticalAlign=middle;whiteSpace=wrap;rounded=0;" vertex="1" parent="1">
                    <mxGeometry x="338" y="420" width="30" height="30" as="geometry"/>
                </mxCell>
                <mxCell id="70" value="No" style="text;html=1;strokeColor=none;fillColor=none;align=center;verticalAlign=middle;whiteSpace=wrap;rounded=0;" vertex="1" parent="1">
                    <mxGeometry x="398" y="690" width="30" height="30" as="geometry"/>
                </mxCell>
                <mxCell id="71" value="Yes" style="text;html=1;strokeColor=none;fillColor=none;align=center;verticalAlign=middle;whiteSpace=wrap;rounded=0;" vertex="1" parent="1">
                    <mxGeometry x="338" y="780" width="30" height="30" as="geometry"/>
                </mxCell>
            </root>
        </mxGraphModel>
    </diagram>
</mxfile>